<?xml version="1.0" encoding="UTF-8"?>
<svg width="326px" height="123px" viewBox="0 0 326 123" version="1.1" xmlns="http://www.w3.org/2000/svg" xmlns:xlink="http://www.w3.org/1999/xlink">
    <title>Jutro Hackathon logo</title>
    <defs>
        <polygon id="path-1" points="0 84 284.695 84 284.695 0.433 0 0.433"></polygon>
    </defs>
    <g id="Jutro-Hackathon-logo" stroke="none" stroke-width="1" fill="none" fill-rule="evenodd">
        <g id="Group-30" transform="translate(14.000000, 16.000000)">
            <polygon id="Fill-1" fill="#fff" points="0 0.9999 0 77.1179 0 77.1179 45.671 77.1179 45.671 61.8939 15.223 61.8939 15.223 16.2229 76.118 16.2229 76.118 0.9999"></polygon>
            <polygon id="Fill-2" fill="#fff" points="30.447 31.4469 30.447 46.6699 60.894 46.6699 60.894 77.1179 76.118 77.1179 76.118 31.4469"></polygon>
            <g id="Group-29" transform="translate(0.000000, 0.566700)">
                <path d="M125.9932,46.2939 C125.9932,53.6059 124.0962,60.5259 113.3802,60.5259 C107.1292,60.5259 102.5532,57.6239 101.2692,51.3169 L109.2502,49.3639 C109.4732,51.2609 111.2592,52.8239 113.1572,52.8239 C117.2312,52.8239 117.2862,48.3029 117.2862,45.3449 L117.2862,20.0069 L125.9932,20.0069 L125.9932,46.2939 Z" id="Fill-3" fill="#fff"></path>
                <path d="M166.7896,44.2851 C166.7896,53.6051 161.0966,60.5261 150.1576,60.5261 C139.1636,60.5261 133.4706,53.6051 133.4706,44.2851 L133.4706,20.0071 L142.1766,20.0071 L142.1766,43.9501 C142.1766,48.8061 145.5256,52.4891 150.1576,52.4891 C154.7346,52.4891 158.0826,48.8061 158.0826,43.9501 L158.0826,20.0071 L166.7896,20.0071 L166.7896,44.2851 Z" id="Fill-5" fill="#fff"></path>
                <polygon id="Fill-7" fill="#fff" points="182.4702 27.7094 171.1962 27.7094 171.1962 20.0074 202.4502 20.0074 202.4502 27.7094 191.1772 27.7094 191.1772 59.5214 182.4702 59.5214"></polygon>
                <path d="M215.564,36.3598 L220.699,36.3598 C223.88,36.3598 228.01,36.2478 228.01,31.9508 C228.01,27.9878 224.438,27.3748 221.257,27.3748 L215.564,27.3748 L215.564,36.3598 Z M206.857,20.0068 L222.149,20.0068 C230.242,20.0068 237.051,22.7978 237.051,32.0068 C237.051,37.5318 234.093,41.8288 228.512,42.8338 L238.558,59.5208 L228.121,59.5208 L219.861,43.7268 L215.564,43.7268 L215.564,59.5208 L206.857,59.5208 L206.857,20.0068 Z" id="Fill-9" fill="#fff"></path>
                <mask id="mask-2" fill="white">
                    <use xlink:href="#path-1"></use>
                </mask>
                <g id="Clip-12"></g>
                <polygon id="Fill-11" fill="#fff" mask="url(#mask-2)" points="241.84 59.417 284.695 59.417 284.695 51.715 241.84 51.715"></polygon>
                <path d="M251.0967,39.7641 C251.0967,32.3971 255.9517,27.0391 263.3747,27.0391 C270.7977,27.0391 275.6537,32.3971 275.6537,39.7641 C275.6537,42.9211 274.7597,45.7081 273.1557,47.8631 L283.2827,47.8631 C284.1967,45.4431 284.6947,42.7311 284.6947,39.7641 C284.6947,27.0951 275.7097,19.0031 263.3747,19.0031 C251.0407,19.0031 242.0557,27.0951 242.0557,39.7641 C242.0557,42.7311 242.5547,45.4431 243.4677,47.8631 L253.5947,47.8631 C251.9907,45.7081 251.0967,42.9211 251.0967,39.7641" id="Fill-13" fill="#fff" mask="url(#mask-2)"></path>
                <g id="Group-28" mask="url(#mask-2)">
                    <g transform="translate(101.000000, 68.000000)">
                        <polygon id="Fill-14" fill="#5AB581" points="8.9146 14.7489 8.9146 9.1289 3.3696 9.1289 3.3696 14.7489 0.4946 14.7489 0.4946 1.3059 3.3696 1.3059 3.3696 6.7389 8.9146 6.7389 8.9146 1.3059 11.7896 1.3059 11.7896 14.7489"></polygon>
                        <path d="M22.1153,10.3617 C21.4993,8.9607 20.9013,7.5427 20.4903,6.3657 C20.0983,7.2987 19.3893,9.0917 18.8293,10.3617 L22.1153,10.3617 Z M20.4163,1.1007 L20.5283,1.1007 L27.0633,14.7487 L24.0563,14.7487 L22.9733,12.3777 L17.9513,12.3777 L16.9063,14.7487 L13.9003,14.7487 L20.4163,1.1007 Z" id="Fill-15" fill="#5AB581"></path>
                        <path d="M38.7891,4.6108 C37.9861,4.1998 36.7161,3.6778 35.0731,3.6778 C32.3471,3.6778 30.6301,5.6378 30.6301,8.0278 C30.6301,10.4358 32.3291,12.3778 34.9801,12.3778 C36.7161,12.3778 38.0421,11.8738 38.8821,11.4438 L38.8821,14.1138 C38.1911,14.4878 36.6601,15.0098 34.7741,15.0098 C30.7231,15.0098 27.7541,11.9668 27.7541,8.0278 C27.7541,4.1068 30.7231,1.0448 34.8681,1.0448 C36.7531,1.0448 38.0981,1.6048 38.7891,1.9788 L38.7891,4.6108 Z" id="Fill-16" fill="#5AB581"></path>
                        <polygon id="Fill-17" fill="#5AB581" points="44.8951 7.6542 50.1231 1.3062 53.5201 1.3062 48.7601 6.9262 53.5951 14.7492 50.3841 14.7492 46.8181 8.7742 44.8951 10.9592 44.8951 14.7492 42.0201 14.7492 42.0201 1.3062 44.8951 1.3062"></polygon>
                        <path d="M63.1553,10.3617 C62.5393,8.9607 61.9413,7.5427 61.5313,6.3657 C61.1393,7.2987 60.4293,9.0917 59.8693,10.3617 L63.1553,10.3617 Z M61.4563,1.1007 L61.5683,1.1007 L68.1033,14.7487 L65.0973,14.7487 L64.0143,12.3777 L58.9913,12.3777 L57.9463,14.7487 L54.9403,14.7487 L61.4563,1.1007 Z" id="Fill-18" fill="#5AB581"></path>
                        <polygon id="Fill-19" fill="#5AB581" points="74.6011 3.7148 74.6011 14.7488 71.7261 14.7488 71.7261 3.7148 67.9731 3.7148 67.9731 1.3058 78.3721 1.3058 78.3721 3.7148"></polygon>
                        <polygon id="Fill-20" fill="#5AB581" points="89.1836 14.7489 89.1836 9.1289 83.6386 9.1289 83.6386 14.7489 80.7636 14.7489 80.7636 1.3059 83.6386 1.3059 83.6386 6.7389 89.1836 6.7389 89.1836 1.3059 92.0586 1.3059 92.0586 14.7489"></polygon>
                        <path d="M101.899,12.3779 C104.326,12.3779 106.044,10.4359 106.044,8.0279 C106.044,5.6379 104.326,3.6779 101.899,3.6779 C99.472,3.6779 97.754,5.6379 97.754,8.0279 C97.754,10.4359 99.472,12.3779 101.899,12.3779 M101.899,1.0449 C105.951,1.0449 108.938,4.1439 108.938,8.0279 C108.938,11.9489 105.969,15.0099 101.899,15.0099 C97.829,15.0099 94.86,11.9489 94.86,8.0279 C94.86,4.1629 97.829,1.0449 101.899,1.0449" id="Fill-21" fill="#5AB581"></path>
                        <polygon id="Fill-22" fill="#5AB581" points="122.8296 14.954 115.4546 7.878 114.5776 7.113 114.5776 14.749 111.7576 14.749 111.7576 1.101 111.8696 1.101 119.2256 8.177 120.0846 8.942 120.0846 1.306 122.9226 1.306 122.9226 14.954"></polygon>
                        <polygon id="Fill-23" fill="#fff" points="131.793 16 134.481 16 134.481 0.055 131.793 0.055"></polygon>
                        <path d="M142.939,1.7914 C143.537,1.4174 144.638,1.0444 145.964,1.0444 C149.025,1.0444 150.93,2.9674 150.93,5.7124 C150.93,8.1774 149.138,10.1564 147.327,12.3214 L151.528,12.3214 L151.528,14.7494 L142.211,14.7494 C145.105,11.3514 147.401,8.8494 147.849,6.5894 C147.961,6.0674 147.961,5.6004 147.868,5.1894 C147.663,4.2564 146.841,3.6774 145.609,3.6774 C144.489,3.6774 143.481,4.1064 142.939,4.4614 L142.939,1.7914 Z" id="Fill-24" fill="#03749C"></path>
                        <path d="M159.7432,12.3779 C161.3672,12.3779 162.3012,10.6039 162.3012,8.0279 C162.3012,5.4509 161.3672,3.6779 159.7432,3.6779 C158.1182,3.6779 157.1662,5.4509 157.1662,8.0279 C157.1662,10.6039 158.1182,12.3779 159.7432,12.3779 M159.7432,1.0449 C163.0852,1.0449 165.1952,4.1259 165.1952,8.0279 C165.1952,11.9299 163.0852,15.0099 159.7432,15.0099 C156.3822,15.0099 154.2722,11.9299 154.2722,8.0279 C154.2722,4.1259 156.3822,1.0449 159.7432,1.0449" id="Fill-25" fill="#03749C"></path>
                        <path d="M167.959,1.7914 C168.556,1.4174 169.658,1.0444 170.983,1.0444 C174.045,1.0444 175.95,2.9674 175.95,5.7124 C175.95,8.1774 174.158,10.1564 172.346,12.3214 L176.547,12.3214 L176.547,14.7494 L167.231,14.7494 C170.125,11.3514 172.421,8.8494 172.869,6.5894 C172.981,6.0674 172.981,5.6004 172.888,5.1894 C172.683,4.2564 171.861,3.6774 170.629,3.6774 C169.508,3.6774 168.5,4.1064 167.959,4.4614 L167.959,1.7914 Z" id="Fill-26" fill="#03749C"></path>
                        <polygon id="Fill-27" fill="#03749C" points="183.6426 1.3061 183.6426 14.7491 180.7676 14.7491 180.7676 3.7331 179.0126 3.7331 179.0126 1.3061"></polygon>
                    </g>
                </g>
            </g>
        </g>
    </g>
</svg>
