<svg
    xmlns="http://www.w3.org/2000/svg"
    id="gw-additional-interests"
    viewBox="0 0 24 24"
>
    <title>Additional Interests</title>
    <g>
        <path fill="none" d="M0 0h24v24H0Z" />
        <path d="M20 2c1.1 0 2 .9 2 2v0 12c0 1.1-.9 2-2 2v0H8c-1.1 0-2-.9-2-2v0V4c0-1.1.9-2 2-2v0Zm-.95 12.46H8.94c-.53 0-.95.42-.95.94s.42.94.94.94h10.1c.52 0 .94-.43.94-.95 0-.53-.43-.95-.95-.95ZM10.2 8.77c-.53 0-.95.42-.95.94v2.52c0 .52.42.94.94.94s.94-.43.94-.95V9.69c0-.53-.43-.95-.95-.95Zm3.78 0c-.53 0-.95.42-.95.94v2.52c0 .52.42.94.94.94s.94-.43.94-.95V9.69c0-.53-.43-.95-.95-.95Zm3.78 0c-.53 0-.95.42-.95.94v2.52c0 .52.42.94.94.94s.94-.43.94-.95V9.69c0-.53-.43-.95-.95-.95Zm-4.38-5.38L8.39 6.01c-.26.13-.43.4-.43.69 0 .43.35.78.78.78h10.42c.42 0 .78-.36.78-.79 0-.3-.17-.57-.43-.7l-4.99-2.63c-.37-.2-.81-.2-1.18 0ZM1.96 6.98v13c0 1.1.9 2 2 2h13c.55 0 1-.45 1-1s-.45-1-1-1h-12c-.55 0-1-.45-1-1v-12c0-.55-.45-1-1-1s-1 .45-1 1Z" />
    </g>
</svg>
