<svg
    xmlns="http://www.w3.org/2000/svg"
    id="gw-account-balance"
    viewBox="0 0 24 24"
>
    <title>Account Balance</title>
    <g>
        <path fill="none" d="M0 0h24v24H0Z" />
        <path d="M4.5 11.5v4c0 .83.67 1.5 1.5 1.5s1.5-.67 1.5-1.5v-4c0-.83-.67-1.5-1.5-1.5s-1.5.67-1.5 1.5Zm6 0v4c0 .83.67 1.5 1.5 1.5s1.5-.67 1.5-1.5v-4c0-.83-.67-1.5-1.5-1.5s-1.5.67-1.5 1.5ZM4 22h16c.83 0 1.5-.67 1.5-1.5s-.67-1.5-1.5-1.5H4c-.83 0-1.5.67-1.5 1.5s.67 1.5 1.5 1.5Zm12.5-10.5v4c0 .83.67 1.5 1.5 1.5s1.5-.67 1.5-1.5v-4c0-.83-.67-1.5-1.5-1.5s-1.5.67-1.5 1.5ZM11.07 1.49l-7.9 4.16c-.41.21-.67.64-.67 1.1C2.5 7.44 3.06 8 3.75 8h16.51c.68 0 1.24-.56 1.24-1.25 0-.46-.26-.89-.67-1.1l-7.9-4.16c-.58-.31-1.28-.31-1.86-.001Z" />
    </g>
</svg>
