<svg
    xmlns="http://www.w3.org/2000/svg"
    id="gw-add-a-photo"
    viewBox="0 0 24 24"
>
    <title>Add A Photo</title>
    <g>
        <path fill="none" d="M0 0h24v24H0Z" />
        <path d="M15.12 4c.56 0 1.1.24 1.47.65v0L17.83 6H21c1.1 0 2 .9 2 2v0 12c0 1.1-.9 2-2 2v0H5c-1.1 0-2-.9-2-2v0V9.72c.3.17.63.28 1 .28 1.1 0 2-.9 2-2v0V7h1c1.1 0 2-.9 2-2 0-.37-.11-.7-.28-1v0ZM13 9c-2.76 0-5 2.24-5 5s2.24 5 5 5 5-2.24 5-5 -2.24-5-5-5Zm0 2c1.65 0 3 1.34 3 3 0 1.65-1.35 3-3 3 -1.66 0-3-1.35-3-3 0-1.66 1.34-3 3-3ZM4 1c.55 0 1 .45 1 1v0 2h2c.55 0 1 .45 1 1s-.45 1-1 1v0H5v2c0 .55-.45 1-1 1s-1-.45-1-1v0V6H1c-.55 0-1-.45-1-1s.45-1 1-1v0h2V2c0-.55.45-1 1-1Z" />
    </g>
</svg>
