<svg
    xmlns="http://www.w3.org/2000/svg"
    id="gw-accessible"
    viewBox="0 0 24 24"
>
    <title>Accessible</title>
    <g>
        <path fill="none" d="M0 0h24v24H0Z" />
        <path d="M19 11.9c0-.49-.36-.89-.84-.97 -1.25-.21-2.43-.88-3.23-1.76l-1.29-1.43c-.17-.19-.38-.34-.61-.45 -.01 0-.01-.01-.02-.01H13c-.37-.21-.78-.31-1.25-.25C10.73 7.15 10 8.07 10 9.1V15c0 1.1.9 2 2 2h5v4c0 .55.45 1 1 1s1-.45 1-1v-4.5c0-1.1-.9-2-2-2h-3v-3.45c1 .83 2.4 1.54 3.8 1.82 .62.13 1.2-.34 1.2-.97Zm-10 .2v2.07c-1.16.42-2 1.52-2 2.83 0 1.66 1.34 3 3 3 1.31 0 2.42-.84 2.83-2v0h2.07c-.46 2.28-2.48 4-4.9 4 -2.76 0-5-2.24-5-5 0-2.42 1.72-4.44 4-4.9v0Zm4.41-9.52c.78.78.78 2.04 0 2.82 -.79.78-2.05.78-2.83 0 -.79-.79-.79-2.05 0-2.83 .78-.79 2.04-.79 2.82 0Z" />
    </g>
</svg>
