<svg
    xmlns="http://www.w3.org/2000/svg"
    id="gw-add-circle-outline"
    viewBox="0 0 24 24"
>
    <title>Add Circle Outline</title>
    <g>
        <path fill="none" d="M0 0h24v24H0Z" />
        <path d="M12 7c-.55 0-1 .45-1 1v3H8c-.55 0-1 .45-1 1s.45 1 1 1h3v3c0 .55.45 1 1 1s1-.45 1-1v-3h3c.55 0 1-.45 1-1s-.45-1-1-1h-3V8c0-.55-.45-1-1-1Zm0-5C6.48 2 2 6.48 2 12c0 5.52 4.48 10 10 10s10-4.48 10-10 -4.48-10-10-10Zm0 18c-4.41 0-8-3.59-8-8s3.59-8 8-8 8 3.59 8 8 -3.59 8-8 8Z" />
    </g>
</svg>
