<svg
    xmlns="http://www.w3.org/2000/svg"
    id="gw-bathtub"
    viewBox="0 0 24 24"
>
    <title>Bathtub</title>
    <g>
        <path fill="none" d="M0 0h24v24H0Z" />
        <path d="M17.17 2C18.73 2 20 3.27 20 4.83v0V13h1c.55 0 1 .45 1 1v0 5c0 1.1-.9 2-2 2 0 .55-.45 1-1 1v0H5c-.55 0-1-.45-1-1 -1.1 0-2-.9-2-2v0 -5c0-.55.45-1 1-1v0h2v-.75c0-1.24 1-2.24 2.24-2.25 .35 0 .69.08 1 .23 .26.12.5.29.69.5v0l1.4 1.55c.25.27.52.51.82.72v0H18V4.83c0-.46-.37-.83-.83-.83 -.22 0-.43.09-.58.24v0l-1.25 1.25c.04.17.07.33.07.51 0 .4-.12.77-.32 1.08v0l-2.76-2.76c.31-.2.68-.32 1.08-.32 .18 0 .35.03.51.08v0l1.25-1.25c.53-.53 1.25-.83 2-.83ZM7 5c1.1 0 2 .89 2 2 0 1.1-.9 2-2 2 -1.11 0-2-.9-2-2 0-1.11.89-2 2-2Z" />
    </g>
</svg>
