<svg
    xmlns="http://www.w3.org/2000/svg"
    id="gw-cc-discover"
    viewBox="0 0 24 24"
>
    <title>Credit Card Discover</title>
    <g>
        <path fill="none" d="M0 0h24v24H0Z" />
        <path d="M20.06 9.69c0-.28-.2-.43-.55-.43h-.18v.86h.16c.35 0 .54-.16.54-.45Zm.26-5.7H3.65c-.93 0-1.67.74-1.67 1.66v12.22c0 .92.74 1.66 1.66 1.66H20.3c.92 0 1.66-.75 1.66-1.67V5.63c0-.93-.75-1.67-1.67-1.67Zm-1.54 4.82c.78 0 1.83-.15 1.83.84 0 .43-.23.71-.65.8l.89 1.19h-.69l-.78-1.14h-.08v1.13h-.56V8.78Zm-1.95 0h1.57v.48h-1.02v.63h.98v.47h-.99v.77h1.01v.47H16.8V8.78Zm-2.39 0l.76 1.91 .77-1.92h.6l-1.24 2.92h-.3l-1.22-2.93h.6Zm-1.95-.11c.85 0 1.54.69 1.54 1.54 0 .85-.7 1.54-1.55 1.54 -.86 0-1.55-.7-1.55-1.55 0-.86.69-1.55 1.54-1.55Zm-1.72.21v.65c-.7-.7-1.63-.17-1.63.65 0 .86.95 1.33 1.62.66v.65c-1.04.49-2.2-.2-2.2-1.33 0-1.09 1.14-1.85 2.19-1.32v0Zm-3.38 2.3c.39 0 .77-.54-.12-.85 -.53-.2-.71-.4-.71-.79 0-.81 1.06-1.1 1.72-.5l-.3.37c-.37-.41-.87-.22-.87.08 0 .15.09.23.42.35 .63.22.81.43.81.88 0 1.02-1.35 1.29-1.97.39l.35-.35c.12.24.34.37.6.37v0Zm-3.53.43h-.82V8.79h.81c.9 0 1.53.59 1.53 1.42 0 .64-.46 1.42-1.54 1.42Zm2.34 0h-.56V8.79h.55v2.84Zm14.62 6.25c0 .28-.24.52-.53.52H6.36c6.58-1.24 13.28-4.84 14.44-5.56v5.03ZM4.5 9.5c-.19-.18-.41-.23-.77-.23h-.15v1.88h.14c.35 0 .59-.07.76-.23 .19-.19.3-.45.3-.72 0-.28-.12-.54-.31-.72Z" />
    </g>
</svg>
