<svg
    xmlns="http://www.w3.org/2000/svg"
    id="gw-cc-visa"
    viewBox="0 0 24 24"
>
    <title>Credit Card Visa</title>
    <g>
        <path fill="none" d="M0 0h24v24H0Z" />
        <path d="M18.32 10.92s.26 1.29.32 1.56h-1.16c.11-.31.55-1.52.55-1.52 -.01.01.11-.32.18-.52l.09.46v0Zm3.67-5.26v12.22c0 .92-.75 1.66-1.67 1.66H3.65c-.93 0-1.67-.75-1.67-1.67V5.64c0-.93.74-1.67 1.66-1.67H20.3c.92 0 1.66.74 1.66 1.66ZM7.28 14.38l2.19-5.39H7.99l-1.37 3.68 -.15-.75 -.49-2.48c-.08-.35-.33-.45-.64-.46H3.09l-.03.1c.54.13 1.03.34 1.46.59l1.24 4.68h1.47v0Zm3.27 0l.87-5.4h-1.4l-.88 5.39h1.39v0Zm4.85-1.77c0-.62-.37-1.09-1.18-1.47 -.49-.25-.79-.42-.79-.67 0-.23.25-.47.8-.47 .45-.02.78.09 1.03.2l.12.05 .19-1.17c-.28-.11-.72-.23-1.25-.23 -1.38 0-2.35.73-2.36 1.78 -.02.77.69 1.2 1.22 1.46s.72.43.72.67c-.01.36-.44.52-.84.52 -.56 0-.86-.09-1.31-.29l-.19-.09 -.2 1.21c.32.14.93.28 1.55.28 1.46 0 2.42-.73 2.43-1.85Zm4.9 1.76l-1.13-5.4h-1.08c-.34 0-.59.09-.73.44l-2.08 4.94h1.46s.23-.67.29-.81h1.79c.04.19.16.8.16.8h1.29Z" />
    </g>
</svg>
