<svg
    xmlns="http://www.w3.org/2000/svg"
    id="gw-cc-amex"
    viewBox="0 0 24 24"
>
    <title>Credit Card American Express</title>
    <g>
        <path fill="none" d="M0 0h24v24H0Z" />
        <path d="M13.28 8.71c0-.57-.49-.64-.96-.64l-1.36-.02v2.4h.56v-.88h.62c.63 0 .5.35.51.87h.57v-.47c0-.32-.06-.53-.39-.64 .25-.11.4-.38.4-.65v0Zm-1.03.39h-.72v-.54h.72c.17 0 .37.03.37.25s-.19.27-.39.27Zm-.58 3.1H9.84l-.73.79 -.72-.8H6.08l-.01 2.4h2.26l.73-.8 .7.79h1.11l0-.81c.65 0 1.71.15 1.71-.81 0-.61-.43-.79-.97-.79v0Zm-3.61 1.89H6.65v-.48H7.9v-.49H6.64v-.44h1.44l.62.7 -.66.7Zm2.28.28l-.88-.98 .87-.96v1.92Zm1.31-1.08h-.74v-.62h.74c.19 0 .35.07.35.29 0 .22-.16.31-.37.31Zm-1.1-4.75v-.51H8.62v2.4h1.92v-.5H9.19v-.48h1.31v-.49H9.18v-.44h1.34Zm11.44 3.21h-.02 .02Zm-6.8 1.07c0-.57-.49-.65-.95-.65h-1.37l-.01 2.4h.57l0-.88h.61c.38 0 .51.06.51.47l-.01.39h.57l0-.48c0-.31-.07-.53-.39-.64 .26-.11.4-.38.41-.64v0Zm-1.02.38h-.72v-.55h.72c.17 0 .37.03.37.25 0 .23-.19.28-.39.28Zm-6-2.78V8.01h-.96l-.69 1.63L5.76 8h-.95v2.28l-.98-2.29h-.86l-1.04 2.4h.62l.22-.54h1.19l.22.53h1.17V8.49l.83 1.88h.5l.83-1.89v1.88h.58ZM3.02 9.38l.38-.96 .39.95H3Zm16.56 5.51v-.16c-.38.19-.14.15-5.44.15 0-.88 0-.83 0-.88 -.06-.01-.12-.01-.33-.01 0 .62-.01.23-.01.87h-1.38c0-.42 0-.54 0-1.02 -.35.2-.8.22-1.2.21 0 .51-.01.28-.01.79h-1.7c-.18-.2-.1-.11-.54-.61 -.12.12-.45.48-.56.6H5.56v-3.21h2.88c.17.19.09.1.53.59 .11-.13.42-.47.54-.6h2.01c.34 0 .62.06.84.19v-.2c1.88 0 2.23-.05 2.62.17v-.18h2.71v.18c.39-.24.68-.19 2.25-.19v.17c.35-.21.57-.19 1.88-.18V5.48c0-.92-.75-1.67-1.67-1.67H3.49c-.92 0-1.67.74-1.67 1.66v3.81c.32-.77.68-1.6.8-1.88h1.37c.14.35.05.12.31.73v-.74h1.59c.1.21.38.83.48 1.04 .2-.48.35-.83.43-1.05h3.57c0-.01.39 0 .4 0 1.51 0 1.86-.03 2.23.18v-.19h1.38v.32c.26-.22.62-.33 1.06-.33h.95c0 .01.06.01.07.01h1.12c.14.34.09.2.3.71v-.72h1.5c.17.27-.04-.07.38.63v-.64h1.38v3.19h-1.45c-.19-.32-.05-.08-.46-.77v.76h-1.84c-.23-.52-.01-.02-.23-.54h-.66c-.15.34-.08.18-.23.53h-.94c-.43 0-.78-.11-1.04-.31v.3h-2.31c-.02-.49-.01-.87-.01-.87 -.07-.02-.12-.01-.35-.01v.87H6.91v-.4c-.09.19-.1.2-.18.39H5.7c-.14-.31-.11-.23-.18-.4v.39H3.68c-.15-.36-.08-.19-.23-.54h-.67c-.15.34-.08.18-.23.53h-.93v7.06c0 .91.74 1.66 1.66 1.66h16.66c.91 0 1.66-.75 1.66-1.67v-3.14c-.45.28-1.14.21-2.35.21Zm1.25-2.24h1.04v-.51h-1.15c-.45 0-.83.22-.83.71 0 1.14 1.48.44 1.48.95 0 .17-.15.22-.3.22h-1.12l-.01.51h1.11c.29 0 .61-.07.78-.31v-.9c-.37-.48-1.37-.05-1.37-.47 0-.21.15-.23.31-.23v0Zm-1.98 1.38h-1.12l-.01.51h1.11c.51 0 .9-.2.9-.77 0-1.16-1.49-.39-1.49-.92 0-.2.17-.23.31-.23h1.05v-.51h-1.16c-.45 0-.82.22-.82.71 0 1.14 1.48.43 1.48.95 -.01.18-.17.22-.31.22v0Zm-1.47-1.4v-.5h-1.92l-.01 2.4h1.91l0-.5 -1.34-.02v-.48h1.31v-.49h-1.32v-.44h1.33Zm-1.96-3.76c-.02 0-.05.07-.05.26 0 .2.03.26.03.27 0 0 .03.01.11.01l.25-.59c-.04 0-.08-.01-.11-.01 -.2 0-.25.02-.26.03Zm.74-.34h-.01 .01Zm-.6-.57c-.82 0-1.18.41-1.18 1.22 0 .77.35 1.17 1.14 1.17h.66l.22-.54h1.19l.22.53h1.16V8.53l1.08 1.8h.81v-2.4h-.59v1.66l-1.01-1.67h-.88v2.26l-.97-2.27h-.87l-.82 1.89h-.26c-.47 0-.56-.29-.56-.7 0-.83.54-.7 1.14-.69v-.53h-.56Zm1.46.41l.38.95h-.8l.4-.96Zm-3.51-.42v2.4h.58V7.94h-.59Z" />
    </g>
</svg>
