<svg
    xmlns="http://www.w3.org/2000/svg"
    id="gw-code-branch"
    viewBox="0 0 24 24"
>
    <title>Code Branch</title>
    <g>
        <path fill="none" d="M0 0h24v24H0Z" />
        <path d="M20 7.62c0-1.73-1.4-3.13-3.125-3.13 -1.73 0-3.125 1.39-3.125 3.12 0 1.42.94 2.62 2.24 3 -.03.62-.17 1.11-.43 1.44 -.61.75-1.93.87-3.33 1 -1.11.1-2.25.21-3.18.66V8.08c1.26-.4 2.18-1.59 2.18-2.99 0-1.73-1.4-3.13-3.125-3.13 -1.73 0-3.125 1.39-3.125 3.12 0 1.39.91 2.58 2.18 2.98v7.78c-1.27.4-2.19 1.58-2.19 2.98 0 1.72 1.39 3.125 3.125 3.125 1.72 0 3.125-1.4 3.125-3.125 0-1.33-.83-2.47-2-2.92 .12-.21.3-.39.58-.53 .63-.33 1.57-.41 2.58-.5 1.64-.16 3.51-.33 4.61-1.7 .54-.68.82-1.56.84-2.66 1.23-.42 2.125-1.59 2.125-2.97ZM8.125 3.87c.68 0 1.25.56 1.25 1.25 0 .68-.57 1.25-1.25 1.25 -.69 0-1.25-.57-1.25-1.25 0-.69.56-1.25 1.25-1.25Zm0 16.25c-.69 0-1.25-.57-1.25-1.25 0-.69.56-1.25 1.25-1.25 .68 0 1.25.56 1.25 1.25 0 .68-.57 1.25-1.25 1.25Zm8.75-11.25c-.69 0-1.25-.57-1.25-1.25 0-.69.56-1.25 1.25-1.25 .68 0 1.25.56 1.25 1.25 0 .68-.57 1.25-1.25 1.25Z" />
    </g>
</svg>
