<svg
    xmlns="http://www.w3.org/2000/svg"
    id="gw-cc-mastercard"
    viewBox="0 0 24 24"
>
    <title>Credit Card Mastercard</title>
    <g>
        <path fill="none" d="M0 0h24v24H0Z" />
        <path d="M18.76 17.1c0 .23-.16.4-.39.4 -.24 0-.39-.19-.39-.41 0-.23.15-.41.38-.41 .22 0 .38.18.38.4Zm-10.8-.41c-.25 0-.39.18-.39.4 0 .22.14.4.38.4 .22 0 .37-.18.37-.41 -.01-.23-.16-.41-.38-.41Zm4.07-.02c-.19 0-.31.12-.33.3h.66c-.04-.2-.16-.31-.34-.31Zm3.74.01c-.24 0-.38.18-.38.4 0 .22.14.4.37.4 .23 0 .38-.18.38-.41 0-.23-.16-.41-.39-.41Zm3.67.9c0 .01.01.01.01.03 0 .01-.02.01-.02.03 -.02.01-.02.01-.02.02 -.02.01-.02.01-.04.01 -.02.01-.02.01-.04.01s-.02 0-.04-.02c-.02 0-.02-.02-.03-.02 -.02-.02-.02-.02-.02-.03 -.02-.02-.02-.03-.02-.04 0-.02 0-.03.01-.04 0-.02.01-.03.01-.04 .01-.02.01-.02.02-.02 .01-.02.02-.02.03-.02 .01 0 .02 0 .03.01 .01.01.02.01.03.01 .01 0 0 .02.01.03Zm-.08.04c.01 0 .01-.02.02-.02 .01-.02.01-.02.01-.03 0-.02 0-.02-.02-.03 -.02 0-.02-.02-.04-.02h-.06v.12h.02v-.05h.01l.03.04h.02l-.04-.05v0Zm2.6-11.99v12.22c0 .92-.75 1.66-1.67 1.66H3.62c-.93 0-1.67-.75-1.67-1.67V5.61c0-.93.74-1.67 1.66-1.67h16.66c.92 0 1.66.74 1.66 1.66ZM4.18 10.47c0 2.65 2.15 4.8 4.8 4.8 .94 0 1.87-.29 2.65-.81 -2.54-2.06-2.52-5.95 0-8.01 -.79-.53-1.72-.81-2.66-.81 -2.66-.01-4.81 2.15-4.81 4.79Zm7.77 3.77c2.44-1.91 2.43-5.64 0-7.56 -2.44 1.92-2.45 5.64 0 7.55ZM7 16.88c0-.31-.2-.5-.52-.52 -.16 0-.33.04-.45.22 -.09-.15-.23-.23-.43-.23 -.14 0-.27.04-.37.18v-.16h-.29v1.27h.28c0-.66-.09-1.05.31-1.05 .35 0 .28.35.28 1.04h.27c0-.64-.09-1.05.31-1.05 .35 0 .28.34.28 1.04h.28v-.8h-.01Zm1.55-.48h-.28v.15c-.1-.12-.23-.19-.41-.19 -.36 0-.64.28-.64.67 0 .38.27.67.63.67 .18 0 .31-.07.4-.19v.15h.27v-1.28 0Zm1.4.88c0-.53-.8-.29-.8-.53 0-.2.41-.17.64-.04l.11-.23c-.33-.22-1.05-.21-1.05.28s.79.28.79.52c0 .21-.47.2-.72.02l-.13.21c.38.26 1.13.2 1.13-.27v0Zm1.22.32l-.08-.24c-.14.07-.43.15-.43-.15v-.58h.45v-.26h-.46v-.39h-.29v.38h-.27v.25h.26v.57c0 .61.6.5.78.37v0Zm.46-.47h.95c0-.57-.26-.79-.61-.79 -.37 0-.64.27-.64.67 0 .71.78.82 1.17.49l-.14-.21c-.28.22-.69.2-.77-.18v0Zm2.05-.75c-.16-.07-.41-.07-.53.15v-.16h-.29v1.27h.28v-.72c0-.41.32-.36.44-.3l.08-.27Zm.36.63c0-.4.4-.53.71-.3l.13-.23c-.41-.32-1.14-.15-1.14.52 0 .68.77.82 1.13.52l-.14-.23c-.32.22-.72.09-.72-.3Zm2.31-.64h-.29v.15c-.29-.39-1.04-.17-1.04.48 0 .66.77.85 1.03.48v.15h.28v-1.28 0Zm1.17 0c-.09-.05-.39-.11-.53.15v-.16h-.28v1.27h.27v-.72c0-.39.31-.36.44-.3l.08-.27Zm1.39-.52h-.28v.67c-.29-.38-1.04-.18-1.04.48 0 .67.78.85 1.03.48v.15h.27v-1.8Zm.26-2.61v.15h.02v-.16h.06v-.03h-.16v.02h.06v0Zm.22 4.29c0-.02 0-.04-.02-.06 -.02-.02-.02-.03-.03-.04 -.02-.02-.03-.02-.04-.03 -.02 0-.04-.02-.06-.02 -.02 0-.03.01-.05.01 -.02.01-.03.01-.04.02 -.02.01-.03.02-.03.03 -.02.01-.02.03-.02.05 0 .01 0 .02.01.04 0 .01.01.02.02.03 .01.01.01.01.03.02 .01.01.03.01.04.01 .01 0 .03 0 .05-.02 .01-.02.02-.02.03-.03 .01-.02.01-.03.02-.04 .01-.03.01-.04.01-.05Zm.11-4.33h-.05l-.06.12 -.06-.13h-.05v.18h.02v-.15l.05.12h.03l.04-.13v.14h.03v-.19 0Zm.15-2.8c0-2.65-2.16-4.81-4.81-4.81 -.95 0-1.88.28-2.66.8 2.5 2.05 2.54 5.95 0 8 .78.52 1.71.8 2.65.8 2.65 0 4.8-2.15 4.8-4.81Z" />
    </g>
</svg>
