<svg
    xmlns="http://www.w3.org/2000/svg"
    id="gw-cloud-done"
    viewBox="0 0 24 24"
>
    <title>Cloud Done</title>
    <g>
        <path fill="none" d="M0 0h24v24H0Z" />
        <path d="M19.35,10.04 C18.67,6.59 15.64,4 12,4 C9.11,4 6.6,5.64 5.35,8.04 C2.34,8.36 0,10.91 0,14 C0,17.31 2.69,20 6,20 L19,20 C21.76,20 24,17.76 24,15 C24,12.36 21.95,10.22 19.35,10.04 Z M10.6897574,15.7146341 C10.3113208,16.095122 9.7,16.095122 9.32156334,15.7146341 L7.28382749,13.6756098 C6.90539084,13.295122 6.90539084,12.6804878 7.28382749,12.3 C7.66226415,11.9195122 8.27358491,11.9195122 8.65202156,12.3 L10.0008086,13.6560976 L14.3479784,9.28536585 C14.7264151,8.90487805 15.3377358,8.90487805 15.7161725,9.28536585 C16.0946092,9.66585366 16.0946092,10.2804878 15.7161725,10.6609756 L10.6897574,15.7146341 L10.6897574,15.7146341 Z" />
    </g>
</svg>
