<svg
    xmlns="http://www.w3.org/2000/svg"
    id="gw-cloud-download"
    viewBox="0 0 24 24"
>
    <title>Cloud Download</title>
    <g>
        <path fill="none" d="M0 0h24v24H0Z" />
        <path d="M19.35,10.04 C18.67,6.59 15.64,4 12,4 C9.11,4 6.6,5.64 5.35,8.04 C2.34,8.36 0,10.91 0,14 C0,17.31 2.69,20 6,20 L19,20 C21.76,20 24,17.76 24,15 C24,12.36 21.95,10.22 19.35,10.04 Z M17,13.0909091 L12.35,17.8465909 C12.15,18.0511364 11.84,18.0511364 11.64,17.8465909 L7,13.0909091 L10,13.0909091 L10,9 L14,9 L14,13.0909091 L17,13.0909091 Z" />
    </g>
</svg>
