<svg
    xmlns="http://www.w3.org/2000/svg"
    id="gw-cancel"
    viewBox="0 0 24 24"
>
    <title>Cancel</title>
    <g>
        <path fill="none" d="M0 0h24v24H0Z" />
        <path d="M12 2C6.47 2 2 6.47 2 12c0 5.53 4.47 10 10 10s10-4.47 10-10 -4.47-10-10-10Zm4.3 14.3c-.39.39-1.02.39-1.41 0L12 13.41 9.11 16.3c-.39.39-1.02.39-1.41 0 -.39-.39-.39-1.02 0-1.41L10.59 12 7.7 9.11c-.39-.39-.39-1.02 0-1.41 .39-.39 1.02-.39 1.41 0L12 10.59l2.89-2.89c.39-.39 1.02-.39 1.41 0 .39.39.39 1.02 0 1.41L13.41 12l2.89 2.89c.38.38.38 1.02 0 1.41Z" />
    </g>
</svg>
