<svg
    xmlns="http://www.w3.org/2000/svg"
    id="gw-customer-service"
    viewBox="0 0 24 24"
>
    <title>Customer Service</title>
    <g>
        <path fill="none" d="M0 0h24v24H0Z" />
        <path d="M15.5 15.75h-.91v0c-1.81.83-3.89.83-5.7 0h-.91v0c-2.77 0-5 2.23-5 5v0c-.001.69.55 1.25 1.25 1.25h15v0c.69 0 1.25-.56 1.25-1.26v0c0-2.77-2.24-5-5-5v0Zm-10.63-5h-.01c.34 0 .62-.28.62-.625v-.63c0-3.45 2.8-6.25 6.25-6.25 3.44 0 6.25 2.8 6.25 6.25v.62l0-.01c-.01 1.72-1.4 3.12-3.13 3.12H13.6v0c0-.7-.56-1.25-1.25-1.25H11.1v0c-.7 0-1.25.55-1.25 1.25 0 .69.55 1.25 1.25 1.25h3.75 0c2.41-.01 4.37-1.97 4.37-4.38v-.63c0-4.14-3.37-7.5-7.51-7.5s-7.5 3.36-7.5 7.5v.62 0c0 .34.27.625.62.625l0 0Zm6.25 0h1.25 0c.89 0 1.71.47 2.16 1.25h.33v0c1.03-.01 1.87-.84 1.875-1.875V9.5v0c0-2.77-2.24-5-5-5 -2.77 0-5 2.23-5 5 0 1.57.74 2.96 1.88 3.88 -.01-.05-.02-.09-.02-.14v0c0-1.39 1.11-2.5 2.5-2.5l-.01-.01Z" />
    </g>
</svg>
