<svg
    xmlns="http://www.w3.org/2000/svg"
    id="gw-drag-indicator"
    viewBox="0 0 24 24"
>
    <title>Drag Indicator</title>
    <g>
        <path fill="none" d="M0 0h24v24H0Z" />
        <path d="M11 18c0 1.1-.9 2-2 2s-2-.9-2-2 .9-2 2-2 2 .9 2 2Zm-2-8c-1.1 0-2 .9-2 2s.9 2 2 2 2-.9 2-2 -.9-2-2-2Zm0-6c-1.1 0-2 .9-2 2s.9 2 2 2 2-.9 2-2 -.9-2-2-2Zm6 4c1.1 0 2-.9 2-2s-.9-2-2-2 -2 .9-2 2 .9 2 2 2Zm0 2c-1.1 0-2 .9-2 2s.9 2 2 2 2-.9 2-2 -.9-2-2-2Zm0 6c-1.1 0-2 .9-2 2s.9 2 2 2 2-.9 2-2 -.9-2-2-2Z" />
    </g>
</svg>
