<svg
    xmlns="http://www.w3.org/2000/svg"
    id="gw-driver-license"
    viewBox="0 0 24 24"
>
    <title>Driver License</title>
    <g>
        <path fill="none" d="M0 0h24v24H0Z" />
        <path d="M20.33 4H3.66c-.93 0-1.67.74-1.67 1.66v12.22c0 .92.74 1.66 1.66 1.66h16.66c.92 0 1.66-.75 1.66-1.67V5.64c0-.93-.75-1.67-1.67-1.67Zm0 13.88H3.66V5.65h16.66v12.22ZM9.21 11.76c1.22 0 2.22-1 2.22-2.23s-1-2.23-2.23-2.23 -2.23.99-2.23 2.22c0 1.22.99 2.22 2.22 2.22ZM6.09 16.2h6.22c.43 0 .77-.3.77-.67v-.67c0-1.11-1.05-2-2.34-2 -.38 0-.65.27-1.56.27 -.94 0-1.16-.28-1.56-.28 -1.29 0-2.34.89-2.34 2v.66c0 .36.34.66.77.66Zm8.38-2.23h3.88c.15 0 .27-.13.27-.28v-.56c0-.16-.125-.28-.28-.28h-3.89c-.16 0-.28.125-.28.27v.55c0 .15.125.27.27.27Zm0-2.23h3.88c.15 0 .27-.13.27-.28v-.56c0-.16-.125-.28-.28-.28h-3.89c-.16 0-.28.12-.28.27v.55c0 .15.125.27.27.27Zm0-2.23h3.88c.15 0 .27-.13.27-.28v-.56c0-.16-.125-.28-.28-.28h-3.89c-.16 0-.28.12-.28.27v.55c0 .15.125.27.27.27Z" />
    </g>
</svg>
