<svg
    xmlns="http://www.w3.org/2000/svg"
    id="gw-format-align-center"
    viewBox="0 0 24 24"
>
    <title>Format Align Center</title>
    <g>
        <path fill="none" d="M0 0h24v24H0Z" />
        <path d="M7 16c0 .55.45 1 1 1h8c.55 0 1-.45 1-1s-.45-1-1-1H8c-.55 0-1 .45-1 1Zm-3 5h16c.55 0 1-.45 1-1s-.45-1-1-1H4c-.55 0-1 .45-1 1s.45 1 1 1Zm0-8h16c.55 0 1-.45 1-1s-.45-1-1-1H4c-.55 0-1 .45-1 1s.45 1 1 1Zm3-5c0 .55.45 1 1 1h8c.55 0 1-.45 1-1s-.45-1-1-1H8c-.55 0-1 .45-1 1ZM3 4c0 .55.45 1 1 1h16c.55 0 1-.45 1-1s-.45-1-1-1H4c-.55 0-1 .45-1 1Z" />
    </g>
</svg>
