<svg
    xmlns="http://www.w3.org/2000/svg"
    id="gw-home-work"
    viewBox="0 0 24 24"
>
    <title>Home Work</title>
    <g>
        <path fill="none" d="M0 0h24v24H0Z" />
        <path d="M20 3h-8c-.55 0-1 .45-1 1v1.61s0 0 .01.01l5 4.5c.63.56.99 1.38.99 2.23V13h2v2h-2v2h2v2h-2v2h3c.55 0 1-.45 1-1V4c0-.55-.45-1-1-1Zm-5 4h-2V5h2v2Zm4 4h-2V9h2v2ZM9 6.85c.24 0 .48.08.67.26v0l5 4.5c.21.19.33.46.33.74v0V20c0 .55-.45 1-1 1v0h-2c-.55 0-1-.45-1-1v0 -4H7v4c0 .55-.45 1-1 1v0H4c-.55 0-1-.45-1-1v0 -7.65c0-.29.12-.56.33-.74v0l5-4.5c.19-.17.43-.26.67-.26ZM19 5v2h-2V5h2Z" />
    </g>
</svg>
