<svg
    xmlns="http://www.w3.org/2000/svg"
    id="gw-instagram"
    viewBox="0 0 24 24"
>
    <title>Instagram</title>
    <g>
        <path fill="none" d="M0 0h24v24H0Z" />
        <path d="M12.0044628,6.87225259 C9.16612741,6.87225259 6.87671539,9.16166462 6.87671539,12 C6.87671539,14.8383354 9.16612741,17.1277474 12.0044628,17.1277474 C14.8427982,17.1277474 17.1322102,14.8383354 17.1322102,12 C17.1322102,9.16166462 14.8427982,6.87225259 12.0044628,6.87225259 Z M12.0044628,15.3337052 C10.1702555,15.3337052 8.67075756,13.8386701 8.67075756,12 C8.67075756,10.1613299 10.1657927,8.66629477 12.0044628,8.66629477 C13.8431329,8.66629477 15.338168,10.1613299 15.338168,12 C15.338168,13.8386701 13.8386701,15.3337052 12.0044628,15.3337052 L12.0044628,15.3337052 Z M18.5379895,6.66250139 C18.5379895,7.32745732 18.0024545,7.85852951 17.3419614,7.85852951 C16.6770055,7.85852951 16.1459333,7.32299453 16.1459333,6.66250139 C16.1459333,6.00200826 16.6814683,5.46647328 17.3419614,5.46647328 C18.0024545,5.46647328 18.5379895,6.00200826 18.5379895,6.66250139 Z M21.9341738,7.87638068 C21.8583064,6.27423854 21.4923575,4.85507085 20.3186433,3.68581948 C19.1493919,2.51656811 17.7302243,2.15061921 16.1280821,2.07028897 C14.4768493,1.97657034 9.52761352,1.97657034 7.87638068,2.07028897 C6.27870133,2.14615642 4.85953364,2.51210532 3.68581948,3.68135669 C2.51210532,4.85060806 2.15061921,6.26977574 2.07028897,7.87191788 C1.97657034,9.52315073 1.97657034,14.4723865 2.07028897,16.1236193 C2.14615642,17.7257615 2.51210532,19.1449292 3.68581948,20.3141805 C4.85953364,21.4834319 6.27423854,21.8493808 7.87638068,21.929711 C9.52761352,22.0234297 14.4768493,22.0234297 16.1280821,21.929711 C17.7302243,21.8538436 19.1493919,21.4878947 20.3186433,20.3141805 C21.4878947,19.1449292 21.8538436,17.7257615 21.9341738,16.1236193 C22.0278924,14.4723865 22.0278924,9.52761352 21.9341738,7.87638068 Z M19.8009595,17.8953475 C19.4528618,18.7700547 18.7789803,19.4439362 17.8998103,19.7964967 C16.5832868,20.3186433 13.4593328,20.1981479 12.0044628,20.1981479 C10.5495928,20.1981479 7.42117595,20.3141805 6.10911525,19.7964967 C5.23440812,19.448399 4.56052661,18.7745175 4.20796608,17.8953475 C3.68581948,16.5788241 3.80631485,13.45487 3.80631485,12 C3.80631485,10.54513 3.69028227,7.41671315 4.20796608,6.10465246 C4.55606382,5.22994533 5.22994533,4.55606382 6.10911525,4.20350329 C7.42563874,3.68135669 10.5495928,3.80185206 12.0044628,3.80185206 C13.4593328,3.80185206 16.5877496,3.68581948 17.8998103,4.20350329 C18.7745175,4.55160103 19.448399,5.22548254 19.8009595,6.10465246 C20.3231061,7.42117595 20.2026107,10.54513 20.2026107,12 C20.2026107,13.45487 20.3231061,16.5832868 19.8009595,17.8953475 Z" />
    </g>
</svg>
