<svg
    xmlns="http://www.w3.org/2000/svg"
    id="gw-list"
    viewBox="0 0 24 24"
>
    <title>List</title>
    <g>
        <path fill="none" d="M0 0h24v24H0Z" />
        <path d="M4 15l.11 0c.49.05.88.48.88.99 0 .55-.45 1-1 1s-1-.45-1-1 .45-1 1-1v0Zm16 0c.55 0 1 .45 1 1s-.45 1-1 1v0H8c-.55 0-1-.45-1-1s.45-1 1-1v0ZM4 11l.11 0c.49.05.88.48.88.99 0 .55-.45 1-1 1s-1-.45-1-1 .45-1 1-1v0Zm16 0c.55 0 1 .45 1 1s-.45 1-1 1v0H8c-.55 0-1-.45-1-1s.45-1 1-1v0ZM4 7l.11 0c.49.05.88.48.88.99 0 .55-.45 1-1 1s-1-.45-1-1 .45-1 1-1v0Zm16 0c.55 0 1 .45 1 1s-.45 1-1 1v0H8c-.55 0-1-.45-1-1s.45-1 1-1v0Z" />
    </g>
</svg>
