<svg
    xmlns="http://www.w3.org/2000/svg"
    id="gw-policy-transactions"
    viewBox="0 0 24 24"
>
    <title>Policy Transactions</title>
    <g>
        <path fill="none" d="M0 0h24v24H0Z" />
        <path d="M5.15 12.86c.31-.32.85-.1.85.35v0V15h14c.55 0 1 .45 1 1v0l-.01.11c-.06.49-.49.88-1 .88v0h-14v1.79c0 .45-.54.67-.86.35v0l-2.79-2.79c-.19-.19-.19-.51.01-.7v0ZM18 5.21c0-.45.54-.67.86-.35v0l2.79 2.79c.19.19.19.51-.01.7v0l-2.79 2.79c-.31.32-.85.1-.85-.35v0V9H4c-.55 0-1-.45-1-1v0l0-.12c.05-.5.48-.89.99-.89v0h14Z" />
    </g>
</svg>
