<svg
    xmlns="http://www.w3.org/2000/svg"
    id="gw-people"
    viewBox="0 0 24 24"
>
    <title>People</title>
    <g>
        <path fill="none" d="M0 0h24v24H0Z" />
        <path d="M16 11c1.66 0 2.99-1.34 2.99-3s-1.33-3-2.99-3c-1.66 0-3 1.34-3 3s1.34 3 3 3Zm-8 0c1.66 0 2.99-1.34 2.99-3s-1.33-3-2.99-3C6.34 5 5 6.34 5 8c0 1.66 1.34 3 3 3Zm0 2c-2.33 0-7 1.17-7 3.5V18c0 .55.45 1 1 1h12c.55 0 1-.45 1-1v-1.5c0-2.33-4.67-3.5-7-3.5Zm8 0c-.29 0-.62.02-.97.05 .02.01.03.03.04.04 1.14.83 1.93 1.94 1.93 3.41V18c0 .35-.07.69-.18 1H22c.55 0 1-.45 1-1v-1.5c0-2.33-4.67-3.5-7-3.5Z" />
    </g>
</svg>
