<svg
    xmlns="http://www.w3.org/2000/svg"
    id="gw-person-add"
    viewBox="0 0 24 24"
>
    <title>Person Add</title>
    <g>
        <path fill="none" d="M0 0h24v24H0Z" />
        <path d="M9 13c2.53 0 4.71.7 6.39 1.56 1 .51 1.61 1.54 1.61 2.66v0V20H1v-2.78c0-1.12.61-2.15 1.61-2.66C4.29 13.7 6.47 13 9 13Zm10-7l.11 0c.49.05.88.48.88.99v0 2h2c.55 0 1 .45 1 1v0l-.01.11c-.06.49-.49.88-1 .88v0h-2v2c0 .55-.45 1-1 1v0l-.12-.01c-.5-.06-.89-.49-.89-1v0 -2h-2c-.55 0-1-.45-1-1v0l0-.12c.05-.5.48-.89.99-.89v0h2v-2c0-.55.45-1 1-1v0ZM9 4c2.21 0 4 1.79 4 4s-1.79 4-4 4 -4-1.79-4-4 1.79-4 4-4Z" />
    </g>
</svg>
