<svg
    xmlns="http://www.w3.org/2000/svg"
    id="gw-relationship"
    viewBox="0 0 24 24"
>
    <title>Relationship</title>
    <g>
        <path fill="none" d="M0 0h24v24H0Z" />
        <path d="M22.02 12.99l-1.91 4 -3.87-2.29L22 12.98Zm-18.53 1c.82 0 1.5.67 1.5 1.5 0 .82-.68 1.5-1.5 1.5 -.83 0-1.5-.68-1.5-1.5 0-.83.67-1.5 1.5-1.5Zm6.42-8c3.91 0 7.65 3.25 9.06 6.33 .23.5 0 1.09-.5 1.32 -.51.23-1.1 0-1.33-.5 -1.12-2.44-4.26-5.17-7.25-5.17 -2.38 0-4.19 1.47-5.51 4.62 -.22.5-.8.74-1.31.53 -.51-.22-.75-.8-.54-1.31 1.6-3.84 4.08-5.86 7.34-5.86Z" />
    </g>
</svg>
