<svg
    xmlns="http://www.w3.org/2000/svg"
    id="gw-submission"
    viewBox="0 0 24 24"
>
    <title>Submission</title>
    <g>
        <path fill="none" d="M0 0h24v24H0Z" />
        <path d="M19 4h-4.18C14.4 2.84 13.3 2 12 2c-1.3 0-2.4.84-2.82 2H5c-1.1 0-2 .9-2 2v14c0 1.1.9 2 2 2h14c1.1 0 2-.9 2-2V6c0-1.1-.9-2-2-2Zm-7 0c.55 0 1 .45 1 1s-.45 1-1 1 -1-.45-1-1 .45-1 1-1ZM9.29 17.29L6.7 14.7c-.39-.39-.39-1.02 0-1.41 .39-.39 1.02-.39 1.41 0L10 15.17l5.88-5.88c.39-.39 1.02-.39 1.41 0 .39.39.39 1.02 0 1.41l-6.59 6.59c-.38.39-1.02.39-1.41 0Z" />
    </g>
</svg>
