<svg
    xmlns="http://www.w3.org/2000/svg"
    id="gw-spinner"
    viewBox="0 0 24 24"
>
    <title>Spinner</title>
    <g>
        <path fill="none" d="M0 0h24v24H0Z" />
        <path d="M12 18.25c1.03 0 1.87.83 1.87 1.875 0 1.03-.84 1.875-1.88 1.875s-1.875-.84-1.875-1.875c0-1.04.83-1.875 1.875-1.875Zm-5.75-2.38c1.03 0 1.87.83 1.87 1.87 0 1.03-.84 1.87-1.88 1.87s-1.88-.84-1.88-1.88 .83-1.88 1.87-1.88Zm11.49 0c1.03 0 1.87.83 1.87 1.87 0 1.03-.84 1.87-1.88 1.87s-1.88-.84-1.88-1.88 .83-1.88 1.87-1.88Zm2.37-5.75c1.03 0 1.875.83 1.875 1.875 0 1.03-.84 1.87-1.875 1.87 -1.04 0-1.875-.84-1.875-1.88s.83-1.875 1.875-1.875Zm-16.25 0c1.03 0 1.875.83 1.875 1.875 0 1.03-.84 1.87-1.88 1.87s-1.88-.84-1.88-1.88 .83-1.875 1.87-1.875Zm2.37-5.75c1.03 0 1.87.83 1.87 1.87 0 1.03-.84 1.87-1.88 1.87s-1.88-.84-1.88-1.88 .83-1.88 1.87-1.88Zm5.74-2.38c1.03 0 1.87.83 1.87 1.87 0 1.03-.84 1.87-1.88 1.87s-1.875-.84-1.875-1.88 .83-1.88 1.875-1.88Z" />
    </g>
</svg>
