<svg
    xmlns="http://www.w3.org/2000/svg"
    id="gw-sync-success"
    viewBox="0 0 24 24"
>
    <title>Sync Success</title>
    <g>
        <path fill="none" d="M0 0h24v24H0Z" />
        <path d="M12 6v1.79c0 .45-.54.67-.85.35L8.36 5.35c-.2-.2-.2-.51 0-.71l2.79-2.79c.31-.31.85-.09.85.36V4c4.42 0 8 3.58 8 8 0 1.04-.2 2.04-.57 2.95 -.27.67-1.13.85-1.64.34 -.27-.27-.38-.68-.23-1.04 .29-.69.44-1.46.44-2.25 0-3.24-2.57-5.88-5.78-6l-.23-.01ZM6.21 8.71c.27.27.38.69.23 1.04 -.28.7-.44 1.46-.44 2.25 0 3.31 2.69 6 6 6v-1.79c0-.45.54-.67.85-.35l2.79 2.79c.2.2.2.51 0 .71l-2.79 2.79c-.31.31-.85.09-.85-.35V20c-4.42 0-8-3.58-8-8 0-1.04.2-2.04.57-2.95 .27-.67 1.13-.85 1.64-.34Zm9.78.87c.39.39.39 1.02-.001 1.41l-4.21 4.38c-.39.39-1.02.39-1.41 0l-2.2-2.2c-.39-.39-.39-1.02 0-1.41l.09-.09c.39-.39 1.02-.39 1.41 0l1.4 1.4 3.4-3.59c.38-.4 1.02-.4 1.41-.01l.09.09Z" />
    </g>
</svg>
