<svg
    xmlns="http://www.w3.org/2000/svg"
    id="gw-timeline"
    viewBox="0 0 24 24"
>
    <title>Timeline</title>
    <g>
        <path fill="none" d="M0 0h24v24H0Z" />
        <path d="M21 6c1.1 0 2 .9 2 2 0 1.05-.83 1.91-1.86 1.99l-.15 0c-.18 0-.35-.02-.51-.07l-3.56 3.55c.05.16.07.34.07.52 0 1.05-.83 1.91-1.86 1.99l-.15 0c-1.1 0-2-.9-2-2 0-.18.02-.36.07-.52l-2.55-2.55c-.11.03-.23.05-.35.06l-.18 0c-.18 0-.36-.02-.52-.07L4.9 15.46c.05.16.07.33.07.51 0 1.05-.83 1.91-1.86 1.99l-.15 0c-1.1 0-2-.9-2-2s.9-2 2-2c.18 0 .35.02.51.07l4.56-4.55c-.05-.16-.07-.34-.07-.52 0-1.1.9-2 2-2s2 .9 2 2c0 .18-.02.36-.07.52l2.55 2.55c.16-.05.34-.07.52-.07s.36.02.52.07l3.55-3.56c-.05-.16-.07-.33-.07-.51 0-1.1.9-2 2-2Z" />
    </g>
</svg>
