<svg
    xmlns="http://www.w3.org/2000/svg"
    id="gw-user-info"
    viewBox="0 0 24 24"
>
    <title>User Info</title>
    <g>
        <path fill="none" d="M0 0h24v24H0Z" />
        <path d="M20.33 4H3.66c-.93 0-1.67.74-1.67 1.66v12.22c0 .92.74 1.66 1.66 1.66h16.66c.92 0 1.66-.75 1.66-1.67V5.64c0-.93-.75-1.67-1.67-1.67Zm0 13.88H3.66V5.65h16.66v12.22ZM9.21 11.76c1.22 0 2.22-1 2.22-2.23s-1-2.23-2.23-2.23 -2.23.99-2.23 2.22c0 1.22.99 2.22 2.22 2.22Zm1.55 1.11c1.28 0 2.33.89 2.33 2v0 .66c0 .36-.35.66-.78.66v0H6.08c-.44 0-.78-.3-.78-.67v0 -.67c0-1.11 1.04-2 2.33-2 .39 0 .62.27 1.55.27 .9 0 1.18-.28 1.55-.28Zm6.22-1.89c.55 0 1 .37 1 .83v3.33c0 .45-.45.83-1 .83s-1-.375-1-.84v-3.34c0-.46.45-.84 1-.84Zm1-3v2h-2v-2h2Z" />
    </g>
</svg>
