<svg
    xmlns="http://www.w3.org/2000/svg"
    id="gw-view-module"
    viewBox="0 0 24 24"
>
    <title>View Module</title>
    <g>
        <path fill="none" d="M0 0h24v24H0Z" />
        <path d="M5 11h3c.55 0 1-.45 1-1V6c0-.55-.45-1-1-1H5c-.55 0-1 .45-1 1v4c0 .55.45 1 1 1Zm0 7h3c.55 0 1-.45 1-1v-4c0-.55-.45-1-1-1H5c-.55 0-1 .45-1 1v4c0 .55.45 1 1 1Zm6 0h3c.55 0 1-.45 1-1v-4c0-.55-.45-1-1-1h-3c-.55 0-1 .45-1 1v4c0 .55.45 1 1 1Zm6 0h3c.55 0 1-.45 1-1v-4c0-.55-.45-1-1-1h-3c-.55 0-1 .45-1 1v4c0 .55.45 1 1 1Zm-6-7h3c.55 0 1-.45 1-1V6c0-.55-.45-1-1-1h-3c-.55 0-1 .45-1 1v4c0 .55.45 1 1 1Zm5-5v4c0 .55.45 1 1 1h3c.55 0 1-.45 1-1V6c0-.55-.45-1-1-1h-3c-.55 0-1 .45-1 1Z" />
    </g>
</svg>
